<svg xmlns="http://www.w3.org/2000/svg" version="1.1" xmlns:xlink="http://www.w3.org/1999/xlink" xmlns:svgjs="http://svgjs.dev/svgjs" width="1000" height="520" viewBox="0 0 1000 520"><g transform="matrix(1,0,0,1,-0.6056348047761162,0.11359501557626572)"><svg viewBox="0 0 396 206" data-background-color="#ffffff" preserveAspectRatio="xMidYMid meet" height="520" width="1000" xmlns="http://www.w3.org/2000/svg" xmlns:xlink="http://www.w3.org/1999/xlink"><g id="tight-bounds" transform="matrix(1,0,0,1,0.24008861730862918,-0.04500110232444854)"><svg viewBox="0 0 395.52 206.0900022046489" height="206.0900022046489" width="395.52"><g><svg viewBox="0 0 395.52 206.0900022046489" height="206.0900022046489" width="395.52"><g><svg viewBox="0 0 395.52 206.0900022046489" height="206.0900022046489" width="395.52"><g id="textblocktransform"><svg viewBox="0 0 395.52 206.0900022046489" height="206.0900022046489" width="395.52" id="textblock"><g><svg viewBox="0 0 395.52 206.0900022046489" height="206.0900022046489" width="395.52"><path d="M394.594 44.202C392.735 22.81 387.435 16.863 387.435 16.863 371.165-5.171 350.86-0.421 332.619 2.745 300.414 2.873 268.339 7.579 236.208 10.103 168.767 10.488 100.749 4.156 33.643 19.773 27.339 24.564-6.54 20.714 1.121 46.941 3.129 57.851 10.456 69.958 10.232 79.97 11.236 81.724 12.631 77.702 13.226 80.227 15.309 87.029 18.711 83.82 21.501 87.842 17.614 98.581 20.403 107.523 23.062 116.893 18.377 119.331 12.371 118.176 9.675 126.262 9.396 132.124 7.89 131.011 6.235 130.755 5.026 130.584 2.59 131.225 2.999 133.065 4.394 139.354-1.594 142.991 2.162 149.152-0.422 155.826 3.948 161.602 3.353 168.833 3.278 170.287 3.687 171.528 4.338 171.87 7.22 173.71 3.018 177.304 3.464 181.197 33.029 207.809 65.104 189.412 95.394 201.648 103.259 193.091 97.346 204.686 100.489 202.889 102.943 200.792 104.728 209.477 107.499 204.557 107.927 203.145 107.276 199.808 108.8 200.45 109.6 200.792 110.307 200.707 110.418 198.739 110.586 195.787 109.117 197.626 108.726 196.086 112.947 188.299 111.906 206.825 115.866 206.055 115.68 203.787 114.528 200.536 116.889 200.963 119.232 197.712 119.306 195.016 121.389 202.333 121.463 203.916 121.835 205.028 122.43 205.798 128.938 197.84 135.409 208.622 142.233 205.028 146.417 201.092 150.433 207.167 154.672 205.67 156.16 204.472 157.666 202.333 159.098 205.926 176.632 206.697 195.319 203.488 211.943 206.055 256.364 201.263 303.835 208.023 350.674 201.691 361.719 199.252 373.192 195.787 383.958 193.006 383.958 193.006 392.679 185.39 392.679 151.163S394.538 121.214 394.817 93.96C395.096 66.707 396.398 65.594 394.538 44.202Z" opacity="1" fill="#000000" data-fill-palette-color="tertiary"></path><g transform="matrix(1,0,0,1,55.76832,26.230666666666668)"><svg width="283.98335999999995" viewBox="5.03000020980835 -36.25 67.91999816894531 36.7400016784668" height="153.62866887131557" data-palette-color="#ffffff"><path d="M16.99-13.92L11.08-13.92 11.08 0 5.03 0 5.03-35.77 16.04-35.77Q18.97-35.77 21.3-35.02 23.63-34.28 25.24-33 26.86-31.71 27.72-30 28.59-28.3 28.59-26.34L28.59-26.34Q28.59-24.61 27.95-23.1 27.32-21.58 26.29-20.3 25.27-19.02 23.99-17.98 22.71-16.94 21.44-16.19L21.44-16.19 31.79 0 24.63 0 16.99-13.92ZM11.08-31.47L11.08-18.09 18.43-18.09Q19.34-18.58 20.09-19.31 20.85-20.04 21.4-20.96 21.95-21.88 22.24-22.92 22.53-23.97 22.53-25.1L22.53-25.1Q22.53-26.44 22.07-27.61 21.61-28.78 20.69-29.64 19.78-30.49 18.4-30.98 17.02-31.47 15.19-31.47L15.19-31.47 11.08-31.47ZM54.98-3.81L54.98-3.81Q57.61-3.81 59.76-4.91 61.91-6.01 63.44-7.9 64.96-9.79 65.79-12.33 66.62-14.87 66.62-17.75L66.62-17.75Q66.62-20.8 65.71-23.4 64.79-26 63.18-27.91 61.57-29.81 59.37-30.88 57.18-31.96 54.61-31.96L54.61-31.96Q51.95-31.96 49.8-30.83 47.65-29.71 46.14-27.8 44.63-25.88 43.81-23.34 42.99-20.8 42.99-17.94L42.99-17.94Q42.99-14.89 43.89-12.3 44.8-9.72 46.4-7.84 48-5.96 50.19-4.88 52.39-3.81 54.98-3.81ZM54.15 0.49L54.15 0.49Q51.78 0.49 49.56-0.06 47.34-0.61 45.4-1.65 43.45-2.69 41.86-4.2 40.26-5.71 39.1-7.67 37.94-9.62 37.3-11.98 36.67-14.33 36.67-17.04L36.67-17.04Q36.67-19.85 37.35-22.36 38.03-24.88 39.27-27 40.5-29.13 42.23-30.85 43.97-32.57 46.05-33.76 48.14-34.96 50.53-35.61 52.93-36.25 55.52-36.25L55.52-36.25Q59.01-36.25 62.17-35.07 65.33-33.89 67.72-31.63 70.11-29.37 71.53-26.12 72.95-22.88 72.95-18.75L72.95-18.75Q72.95-15.97 72.28-13.45 71.6-10.94 70.38-8.8 69.16-6.67 67.45-4.94 65.74-3.22 63.66-2.01 61.57-0.81 59.16-0.16 56.76 0.49 54.15 0.49Z" opacity="1" transform="matrix(1,0,0,1,0,0)" fill="#ffffff" class="wordmark-text-0" data-fill-palette-color="quaternary" id="text-0"></path></svg></g></svg></g></svg></g></svg></g><g></g></svg></g><defs></defs></svg><rect width="395.52" height="206.0900022046489" fill="none" stroke="none" visibility="hidden"></rect></g></svg></g></svg>


